<mxfile host="Electron" agent="Mozilla/5.0 (Windows NT 10.0; Win64; x64) AppleWebKit/537.36 (KHTML, like Gecko) draw.io/24.7.8 Chrome/128.0.6613.36 Electron/32.0.1 Safari/537.36" version="24.7.8">
  <diagram id="C5RBs43oDa-KdzZeNtuy" name="Page-1">
    <mxGraphModel dx="1607" dy="1665" grid="0" gridSize="10" guides="1" tooltips="1" connect="1" arrows="1" fold="1" page="1" pageScale="1" pageWidth="827" pageHeight="1169" math="0" shadow="0">
      <root>
        <mxCell id="WIyWlLk6GJQsqaUBKTNV-0" />
        <mxCell id="WIyWlLk6GJQsqaUBKTNV-1" parent="WIyWlLk6GJQsqaUBKTNV-0" />
        <mxCell id="YJZqjUyzHQ_o85CFt1zB-0" value="FileHandler&lt;T&gt;" style="swimlane;fontStyle=0;align=center;verticalAlign=top;childLayout=stackLayout;horizontal=1;startSize=26;horizontalStack=0;resizeParent=1;resizeLast=0;collapsible=1;marginBottom=0;rounded=0;shadow=0;strokeWidth=1;" parent="WIyWlLk6GJQsqaUBKTNV-1" vertex="1">
          <mxGeometry x="105" y="-20" width="250" height="120" as="geometry">
            <mxRectangle x="550" y="140" width="160" height="26" as="alternateBounds" />
          </mxGeometry>
        </mxCell>
        <mxCell id="YJZqjUyzHQ_o85CFt1zB-1" value="- _filePath : string" style="text;align=left;verticalAlign=top;spacingLeft=4;spacingRight=4;overflow=hidden;rotatable=0;points=[[0,0.5],[1,0.5]];portConstraint=eastwest;" parent="YJZqjUyzHQ_o85CFt1zB-0" vertex="1">
          <mxGeometry y="26" width="250" height="26" as="geometry" />
        </mxCell>
        <mxCell id="YJZqjUyzHQ_o85CFt1zB-6" value="" style="line;html=1;strokeWidth=1;align=left;verticalAlign=middle;spacingTop=-1;spacingLeft=3;spacingRight=3;rotatable=0;labelPosition=right;points=[];portConstraint=eastwest;" parent="YJZqjUyzHQ_o85CFt1zB-0" vertex="1">
          <mxGeometry y="52" width="250" height="8" as="geometry" />
        </mxCell>
        <mxCell id="YJZqjUyzHQ_o85CFt1zB-7" value="+ LoadFromFile(Func&lt;string, T&gt;) : List&lt;T&gt;" style="text;align=left;verticalAlign=top;spacingLeft=4;spacingRight=4;overflow=hidden;rotatable=0;points=[[0,0.5],[1,0.5]];portConstraint=eastwest;" parent="YJZqjUyzHQ_o85CFt1zB-0" vertex="1">
          <mxGeometry y="60" width="250" height="26" as="geometry" />
        </mxCell>
        <mxCell id="YJZqjUyzHQ_o85CFt1zB-8" value="+ SaveToFile(List&lt;T&gt;, Func&lt;T, string&gt;) : void" style="text;align=left;verticalAlign=top;spacingLeft=4;spacingRight=4;overflow=hidden;rotatable=0;points=[[0,0.5],[1,0.5]];portConstraint=eastwest;" parent="YJZqjUyzHQ_o85CFt1zB-0" vertex="1">
          <mxGeometry y="86" width="250" height="26" as="geometry" />
        </mxCell>
        <mxCell id="YJZqjUyzHQ_o85CFt1zB-9" value="Menus&#xa;" style="swimlane;fontStyle=0;align=center;verticalAlign=top;childLayout=stackLayout;horizontal=1;startSize=26;horizontalStack=0;resizeParent=1;resizeLast=0;collapsible=1;marginBottom=0;rounded=0;shadow=0;strokeWidth=1;" parent="WIyWlLk6GJQsqaUBKTNV-1" vertex="1">
          <mxGeometry x="105" y="-240" width="220" height="200" as="geometry">
            <mxRectangle x="550" y="140" width="160" height="26" as="alternateBounds" />
          </mxGeometry>
        </mxCell>
        <mxCell id="YJZqjUyzHQ_o85CFt1zB-10" value="- _displayList : DisplayList" style="text;align=left;verticalAlign=top;spacingLeft=4;spacingRight=4;overflow=hidden;rotatable=0;points=[[0,0.5],[1,0.5]];portConstraint=eastwest;" parent="YJZqjUyzHQ_o85CFt1zB-9" vertex="1">
          <mxGeometry y="26" width="220" height="26" as="geometry" />
        </mxCell>
        <mxCell id="YJZqjUyzHQ_o85CFt1zB-11" value="- _productHandler : ProductHandler" style="text;align=left;verticalAlign=top;spacingLeft=4;spacingRight=4;overflow=hidden;rotatable=0;points=[[0,0.5],[1,0.5]];portConstraint=eastwest;rounded=0;shadow=0;html=0;" parent="YJZqjUyzHQ_o85CFt1zB-9" vertex="1">
          <mxGeometry y="52" width="220" height="26" as="geometry" />
        </mxCell>
        <mxCell id="YJZqjUyzHQ_o85CFt1zB-12" value="- _discountHandler : DiscountHandler" style="text;align=left;verticalAlign=top;spacingLeft=4;spacingRight=4;overflow=hidden;rotatable=0;points=[[0,0.5],[1,0.5]];portConstraint=eastwest;rounded=0;shadow=0;html=0;" parent="YJZqjUyzHQ_o85CFt1zB-9" vertex="1">
          <mxGeometry y="78" width="220" height="26" as="geometry" />
        </mxCell>
        <mxCell id="YJZqjUyzHQ_o85CFt1zB-13" value="- _customerHandler : CustomerHandler" style="text;align=left;verticalAlign=top;spacingLeft=4;spacingRight=4;overflow=hidden;rotatable=0;points=[[0,0.5],[1,0.5]];portConstraint=eastwest;rounded=0;shadow=0;html=0;" parent="YJZqjUyzHQ_o85CFt1zB-9" vertex="1">
          <mxGeometry y="104" width="220" height="26" as="geometry" />
        </mxCell>
        <mxCell id="YJZqjUyzHQ_o85CFt1zB-15" value="" style="line;html=1;strokeWidth=1;align=left;verticalAlign=middle;spacingTop=-1;spacingLeft=3;spacingRight=3;rotatable=0;labelPosition=right;points=[];portConstraint=eastwest;" parent="YJZqjUyzHQ_o85CFt1zB-9" vertex="1">
          <mxGeometry y="130" width="220" height="8" as="geometry" />
        </mxCell>
        <mxCell id="YJZqjUyzHQ_o85CFt1zB-16" value="+ MainMenu() : void" style="text;align=left;verticalAlign=top;spacingLeft=4;spacingRight=4;overflow=hidden;rotatable=0;points=[[0,0.5],[1,0.5]];portConstraint=eastwest;" parent="YJZqjUyzHQ_o85CFt1zB-9" vertex="1">
          <mxGeometry y="138" width="220" height="26" as="geometry" />
        </mxCell>
        <mxCell id="YJZqjUyzHQ_o85CFt1zB-17" value="+ AdminMenu() : void" style="text;align=left;verticalAlign=top;spacingLeft=4;spacingRight=4;overflow=hidden;rotatable=0;points=[[0,0.5],[1,0.5]];portConstraint=eastwest;" parent="YJZqjUyzHQ_o85CFt1zB-9" vertex="1">
          <mxGeometry y="164" width="220" height="26" as="geometry" />
        </mxCell>
        <mxCell id="YJZqjUyzHQ_o85CFt1zB-194" style="rounded=0;orthogonalLoop=1;jettySize=auto;html=1;endArrow=block;endFill=0;exitX=0.5;exitY=0;exitDx=0;exitDy=0;entryX=0.839;entryY=1.12;entryDx=0;entryDy=0;entryPerimeter=0;edgeStyle=orthogonalEdgeStyle;" parent="WIyWlLk6GJQsqaUBKTNV-1" source="YJZqjUyzHQ_o85CFt1zB-18" target="YJZqjUyzHQ_o85CFt1zB-105" edge="1">
          <mxGeometry relative="1" as="geometry">
            <mxPoint x="1280" y="290" as="targetPoint" />
            <Array as="points">
              <mxPoint x="1095" y="290" />
              <mxPoint x="1243" y="290" />
            </Array>
          </mxGeometry>
        </mxCell>
        <mxCell id="YJZqjUyzHQ_o85CFt1zB-18" value="DisplayList" style="swimlane;fontStyle=0;align=center;verticalAlign=top;childLayout=stackLayout;horizontal=1;startSize=26;horizontalStack=0;resizeParent=1;resizeLast=0;collapsible=1;marginBottom=0;rounded=0;shadow=0;strokeWidth=1;" parent="WIyWlLk6GJQsqaUBKTNV-1" vertex="1">
          <mxGeometry x="970" y="330" width="250" height="220" as="geometry">
            <mxRectangle x="550" y="140" width="160" height="26" as="alternateBounds" />
          </mxGeometry>
        </mxCell>
        <mxCell id="YJZqjUyzHQ_o85CFt1zB-19" value="+ _returnToMainMenu : Action" style="text;align=left;verticalAlign=top;spacingLeft=4;spacingRight=4;overflow=hidden;rotatable=0;points=[[0,0.5],[1,0.5]];portConstraint=eastwest;" parent="YJZqjUyzHQ_o85CFt1zB-18" vertex="1">
          <mxGeometry y="26" width="250" height="26" as="geometry" />
        </mxCell>
        <mxCell id="YJZqjUyzHQ_o85CFt1zB-23" value="" style="line;html=1;strokeWidth=1;align=left;verticalAlign=middle;spacingTop=-1;spacingLeft=3;spacingRight=3;rotatable=0;labelPosition=right;points=[];portConstraint=eastwest;" parent="YJZqjUyzHQ_o85CFt1zB-18" vertex="1">
          <mxGeometry y="52" width="250" height="8" as="geometry" />
        </mxCell>
        <mxCell id="YJZqjUyzHQ_o85CFt1zB-24" value="+ BrowseAList&lt;T&gt;(List&lt;T&gt;, List&lt;string&gt;) : int" style="text;align=left;verticalAlign=top;spacingLeft=4;spacingRight=4;overflow=hidden;rotatable=0;points=[[0,0.5],[1,0.5]];portConstraint=eastwest;" parent="YJZqjUyzHQ_o85CFt1zB-18" vertex="1">
          <mxGeometry y="60" width="250" height="26" as="geometry" />
        </mxCell>
        <mxCell id="YJZqjUyzHQ_o85CFt1zB-25" value="- ShowHeader(List&lt;T&gt;) : void&#xa;" style="text;align=left;verticalAlign=top;spacingLeft=4;spacingRight=4;overflow=hidden;rotatable=0;points=[[0,0.5],[1,0.5]];portConstraint=eastwest;" parent="YJZqjUyzHQ_o85CFt1zB-18" vertex="1">
          <mxGeometry y="86" width="250" height="26" as="geometry" />
        </mxCell>
        <mxCell id="YJZqjUyzHQ_o85CFt1zB-26" value="- DislayItems(List&lt;T&gt;, int) : void&#xa;" style="text;align=left;verticalAlign=top;spacingLeft=4;spacingRight=4;overflow=hidden;rotatable=0;points=[[0,0.5],[1,0.5]];portConstraint=eastwest;" parent="YJZqjUyzHQ_o85CFt1zB-18" vertex="1">
          <mxGeometry y="112" width="250" height="26" as="geometry" />
        </mxCell>
        <mxCell id="YJZqjUyzHQ_o85CFt1zB-27" value="- ShowMainMenuButton(bool) : void&#xa;" style="text;align=left;verticalAlign=top;spacingLeft=4;spacingRight=4;overflow=hidden;rotatable=0;points=[[0,0.5],[1,0.5]];portConstraint=eastwest;" parent="YJZqjUyzHQ_o85CFt1zB-18" vertex="1">
          <mxGeometry y="138" width="250" height="26" as="geometry" />
        </mxCell>
        <mxCell id="YJZqjUyzHQ_o85CFt1zB-28" value="- HandleUserInput(List&lt;T&gt;, int, bool) : int&#xa;" style="text;align=left;verticalAlign=top;spacingLeft=4;spacingRight=4;overflow=hidden;rotatable=0;points=[[0,0.5],[1,0.5]];portConstraint=eastwest;" parent="YJZqjUyzHQ_o85CFt1zB-18" vertex="1">
          <mxGeometry y="164" width="250" height="26" as="geometry" />
        </mxCell>
        <mxCell id="YJZqjUyzHQ_o85CFt1zB-29" value="+ ReturnToMainMenu(Action) : void&#xa;" style="text;align=left;verticalAlign=top;spacingLeft=4;spacingRight=4;overflow=hidden;rotatable=0;points=[[0,0.5],[1,0.5]];portConstraint=eastwest;" parent="YJZqjUyzHQ_o85CFt1zB-18" vertex="1">
          <mxGeometry y="190" width="250" height="26" as="geometry" />
        </mxCell>
        <mxCell id="YJZqjUyzHQ_o85CFt1zB-198" style="rounded=0;orthogonalLoop=1;jettySize=auto;html=1;entryX=0.5;entryY=1;entryDx=0;entryDy=0;edgeStyle=orthogonalEdgeStyle;exitX=0.5;exitY=0;exitDx=0;exitDy=0;endArrow=block;endFill=0;" parent="WIyWlLk6GJQsqaUBKTNV-1" source="YJZqjUyzHQ_o85CFt1zB-30" target="YJZqjUyzHQ_o85CFt1zB-100" edge="1">
          <mxGeometry relative="1" as="geometry">
            <Array as="points">
              <mxPoint x="850" y="250" />
              <mxPoint x="1145" y="250" />
            </Array>
          </mxGeometry>
        </mxCell>
        <mxCell id="YJZqjUyzHQ_o85CFt1zB-30" value="ProductHandler" style="swimlane;fontStyle=0;align=center;verticalAlign=top;childLayout=stackLayout;horizontal=1;startSize=26;horizontalStack=0;resizeParent=1;resizeLast=0;collapsible=1;marginBottom=0;rounded=0;shadow=0;strokeWidth=1;" parent="WIyWlLk6GJQsqaUBKTNV-1" vertex="1">
          <mxGeometry x="707" y="330" width="253" height="325" as="geometry">
            <mxRectangle x="550" y="140" width="160" height="26" as="alternateBounds" />
          </mxGeometry>
        </mxCell>
        <mxCell id="YJZqjUyzHQ_o85CFt1zB-31" value="+ listOfProducts : List&lt;Product&gt;" style="text;align=left;verticalAlign=top;spacingLeft=4;spacingRight=4;overflow=hidden;rotatable=0;points=[[0,0.5],[1,0.5]];portConstraint=eastwest;" parent="YJZqjUyzHQ_o85CFt1zB-30" vertex="1">
          <mxGeometry y="26" width="253" height="26" as="geometry" />
        </mxCell>
        <mxCell id="YJZqjUyzHQ_o85CFt1zB-32" value="- _productFileHandler : FileHandler&lt;Product&gt;" style="text;align=left;verticalAlign=top;spacingLeft=4;spacingRight=4;overflow=hidden;rotatable=0;points=[[0,0.5],[1,0.5]];portConstraint=eastwest;rounded=0;shadow=0;html=0;" parent="YJZqjUyzHQ_o85CFt1zB-30" vertex="1">
          <mxGeometry y="52" width="253" height="31" as="geometry" />
        </mxCell>
        <mxCell id="YJZqjUyzHQ_o85CFt1zB-33" value="- _displayList : DisplayList" style="text;align=left;verticalAlign=top;spacingLeft=4;spacingRight=4;overflow=hidden;rotatable=0;points=[[0,0.5],[1,0.5]];portConstraint=eastwest;rounded=0;shadow=0;html=0;" parent="YJZqjUyzHQ_o85CFt1zB-30" vertex="1">
          <mxGeometry y="83" width="253" height="26" as="geometry" />
        </mxCell>
        <mxCell id="YJZqjUyzHQ_o85CFt1zB-34" value="- _returnToMainMenu : Action" style="text;align=left;verticalAlign=top;spacingLeft=4;spacingRight=4;overflow=hidden;rotatable=0;points=[[0,0.5],[1,0.5]];portConstraint=eastwest;rounded=0;shadow=0;html=0;" parent="YJZqjUyzHQ_o85CFt1zB-30" vertex="1">
          <mxGeometry y="109" width="253" height="26" as="geometry" />
        </mxCell>
        <mxCell id="YJZqjUyzHQ_o85CFt1zB-35" value="" style="line;html=1;strokeWidth=1;align=left;verticalAlign=middle;spacingTop=-1;spacingLeft=3;spacingRight=3;rotatable=0;labelPosition=right;points=[];portConstraint=eastwest;" parent="YJZqjUyzHQ_o85CFt1zB-30" vertex="1">
          <mxGeometry y="135" width="253" height="8" as="geometry" />
        </mxCell>
        <mxCell id="YJZqjUyzHQ_o85CFt1zB-36" value="- ParseProduct(string) : Product" style="text;align=left;verticalAlign=top;spacingLeft=4;spacingRight=4;overflow=hidden;rotatable=0;points=[[0,0.5],[1,0.5]];portConstraint=eastwest;" parent="YJZqjUyzHQ_o85CFt1zB-30" vertex="1">
          <mxGeometry y="143" width="253" height="26" as="geometry" />
        </mxCell>
        <mxCell id="YJZqjUyzHQ_o85CFt1zB-37" value="- FormatProduct(Product) : string" style="text;align=left;verticalAlign=top;spacingLeft=4;spacingRight=4;overflow=hidden;rotatable=0;points=[[0,0.5],[1,0.5]];portConstraint=eastwest;" parent="YJZqjUyzHQ_o85CFt1zB-30" vertex="1">
          <mxGeometry y="169" width="253" height="26" as="geometry" />
        </mxCell>
        <mxCell id="YJZqjUyzHQ_o85CFt1zB-38" value="+ SaveProducts() : void" style="text;align=left;verticalAlign=top;spacingLeft=4;spacingRight=4;overflow=hidden;rotatable=0;points=[[0,0.5],[1,0.5]];portConstraint=eastwest;" parent="YJZqjUyzHQ_o85CFt1zB-30" vertex="1">
          <mxGeometry y="195" width="253" height="26" as="geometry" />
        </mxCell>
        <mxCell id="YJZqjUyzHQ_o85CFt1zB-39" value="+ ChangeProduct() : void" style="text;align=left;verticalAlign=top;spacingLeft=4;spacingRight=4;overflow=hidden;rotatable=0;points=[[0,0.5],[1,0.5]];portConstraint=eastwest;" parent="YJZqjUyzHQ_o85CFt1zB-30" vertex="1">
          <mxGeometry y="221" width="253" height="26" as="geometry" />
        </mxCell>
        <mxCell id="YJZqjUyzHQ_o85CFt1zB-40" value="+ AddProduct() : void" style="text;align=left;verticalAlign=top;spacingLeft=4;spacingRight=4;overflow=hidden;rotatable=0;points=[[0,0.5],[1,0.5]];portConstraint=eastwest;" parent="YJZqjUyzHQ_o85CFt1zB-30" vertex="1">
          <mxGeometry y="247" width="253" height="26" as="geometry" />
        </mxCell>
        <mxCell id="YJZqjUyzHQ_o85CFt1zB-41" value="+ RemoveProduct() : void" style="text;align=left;verticalAlign=top;spacingLeft=4;spacingRight=4;overflow=hidden;rotatable=0;points=[[0,0.5],[1,0.5]];portConstraint=eastwest;" parent="YJZqjUyzHQ_o85CFt1zB-30" vertex="1">
          <mxGeometry y="273" width="253" height="26" as="geometry" />
        </mxCell>
        <mxCell id="YJZqjUyzHQ_o85CFt1zB-42" value="+ ReturnToMainMenu(Action) : void" style="text;align=left;verticalAlign=top;spacingLeft=4;spacingRight=4;overflow=hidden;rotatable=0;points=[[0,0.5],[1,0.5]];portConstraint=eastwest;" parent="YJZqjUyzHQ_o85CFt1zB-30" vertex="1">
          <mxGeometry y="299" width="253" height="26" as="geometry" />
        </mxCell>
        <mxCell id="YJZqjUyzHQ_o85CFt1zB-43" value="DiscountHandler" style="swimlane;fontStyle=0;align=center;verticalAlign=top;childLayout=stackLayout;horizontal=1;startSize=26;horizontalStack=0;resizeParent=1;resizeLast=0;collapsible=1;marginBottom=0;rounded=0;shadow=0;strokeWidth=1;" parent="WIyWlLk6GJQsqaUBKTNV-1" vertex="1">
          <mxGeometry x="160" y="330" width="220" height="320" as="geometry">
            <mxRectangle x="550" y="140" width="160" height="26" as="alternateBounds" />
          </mxGeometry>
        </mxCell>
        <mxCell id="YJZqjUyzHQ_o85CFt1zB-44" value="+ listOfDiscounts : List&lt;Discount&gt;" style="text;align=left;verticalAlign=top;spacingLeft=4;spacingRight=4;overflow=hidden;rotatable=0;points=[[0,0.5],[1,0.5]];portConstraint=eastwest;" parent="YJZqjUyzHQ_o85CFt1zB-43" vertex="1">
          <mxGeometry y="26" width="220" height="26" as="geometry" />
        </mxCell>
        <mxCell id="YJZqjUyzHQ_o85CFt1zB-45" value="- _fileHandler : FileHandler&lt;Discount&gt;" style="text;align=left;verticalAlign=top;spacingLeft=4;spacingRight=4;overflow=hidden;rotatable=0;points=[[0,0.5],[1,0.5]];portConstraint=eastwest;rounded=0;shadow=0;html=0;" parent="YJZqjUyzHQ_o85CFt1zB-43" vertex="1">
          <mxGeometry y="52" width="220" height="26" as="geometry" />
        </mxCell>
        <mxCell id="YJZqjUyzHQ_o85CFt1zB-46" value="- _displayList : DisplayList" style="text;align=left;verticalAlign=top;spacingLeft=4;spacingRight=4;overflow=hidden;rotatable=0;points=[[0,0.5],[1,0.5]];portConstraint=eastwest;rounded=0;shadow=0;html=0;" parent="YJZqjUyzHQ_o85CFt1zB-43" vertex="1">
          <mxGeometry y="78" width="220" height="26" as="geometry" />
        </mxCell>
        <mxCell id="YJZqjUyzHQ_o85CFt1zB-47" value="- _productHandler : ProductHandler" style="text;align=left;verticalAlign=top;spacingLeft=4;spacingRight=4;overflow=hidden;rotatable=0;points=[[0,0.5],[1,0.5]];portConstraint=eastwest;rounded=0;shadow=0;html=0;" parent="YJZqjUyzHQ_o85CFt1zB-43" vertex="1">
          <mxGeometry y="104" width="220" height="26" as="geometry" />
        </mxCell>
        <mxCell id="YJZqjUyzHQ_o85CFt1zB-56" value="- _returnToMainMenu : Action" style="text;align=left;verticalAlign=top;spacingLeft=4;spacingRight=4;overflow=hidden;rotatable=0;points=[[0,0.5],[1,0.5]];portConstraint=eastwest;rounded=0;shadow=0;html=0;" parent="YJZqjUyzHQ_o85CFt1zB-43" vertex="1">
          <mxGeometry y="130" width="220" height="26" as="geometry" />
        </mxCell>
        <mxCell id="YJZqjUyzHQ_o85CFt1zB-48" value="" style="line;html=1;strokeWidth=1;align=left;verticalAlign=middle;spacingTop=-1;spacingLeft=3;spacingRight=3;rotatable=0;labelPosition=right;points=[];portConstraint=eastwest;" parent="YJZqjUyzHQ_o85CFt1zB-43" vertex="1">
          <mxGeometry y="156" width="220" height="8" as="geometry" />
        </mxCell>
        <mxCell id="YJZqjUyzHQ_o85CFt1zB-50" value="- ParseDiscount(string) : Discount" style="text;align=left;verticalAlign=top;spacingLeft=4;spacingRight=4;overflow=hidden;rotatable=0;points=[[0,0.5],[1,0.5]];portConstraint=eastwest;" parent="YJZqjUyzHQ_o85CFt1zB-43" vertex="1">
          <mxGeometry y="164" width="220" height="26" as="geometry" />
        </mxCell>
        <mxCell id="YJZqjUyzHQ_o85CFt1zB-51" value="- FormatDiscount(Discount) : string" style="text;align=left;verticalAlign=top;spacingLeft=4;spacingRight=4;overflow=hidden;rotatable=0;points=[[0,0.5],[1,0.5]];portConstraint=eastwest;" parent="YJZqjUyzHQ_o85CFt1zB-43" vertex="1">
          <mxGeometry y="190" width="220" height="26" as="geometry" />
        </mxCell>
        <mxCell id="YJZqjUyzHQ_o85CFt1zB-57" value="+ SaveDiscount() : void" style="text;align=left;verticalAlign=top;spacingLeft=4;spacingRight=4;overflow=hidden;rotatable=0;points=[[0,0.5],[1,0.5]];portConstraint=eastwest;" parent="YJZqjUyzHQ_o85CFt1zB-43" vertex="1">
          <mxGeometry y="216" width="220" height="26" as="geometry" />
        </mxCell>
        <mxCell id="YJZqjUyzHQ_o85CFt1zB-52" value="+ AddDiscount() : void" style="text;align=left;verticalAlign=top;spacingLeft=4;spacingRight=4;overflow=hidden;rotatable=0;points=[[0,0.5],[1,0.5]];portConstraint=eastwest;" parent="YJZqjUyzHQ_o85CFt1zB-43" vertex="1">
          <mxGeometry y="242" width="220" height="26" as="geometry" />
        </mxCell>
        <mxCell id="YJZqjUyzHQ_o85CFt1zB-53" value="+ RemoveDiscount() : void" style="text;align=left;verticalAlign=top;spacingLeft=4;spacingRight=4;overflow=hidden;rotatable=0;points=[[0,0.5],[1,0.5]];portConstraint=eastwest;" parent="YJZqjUyzHQ_o85CFt1zB-43" vertex="1">
          <mxGeometry y="268" width="220" height="26" as="geometry" />
        </mxCell>
        <mxCell id="YJZqjUyzHQ_o85CFt1zB-54" value="+ ReturnToMainMenu(Action) : void" style="text;align=left;verticalAlign=top;spacingLeft=4;spacingRight=4;overflow=hidden;rotatable=0;points=[[0,0.5],[1,0.5]];portConstraint=eastwest;" parent="YJZqjUyzHQ_o85CFt1zB-43" vertex="1">
          <mxGeometry y="294" width="220" height="26" as="geometry" />
        </mxCell>
        <mxCell id="YJZqjUyzHQ_o85CFt1zB-58" value="CustomerHandler" style="swimlane;fontStyle=0;align=center;verticalAlign=top;childLayout=stackLayout;horizontal=1;startSize=26;horizontalStack=0;resizeParent=1;resizeLast=0;collapsible=1;marginBottom=0;rounded=0;shadow=0;strokeWidth=1;" parent="WIyWlLk6GJQsqaUBKTNV-1" vertex="1">
          <mxGeometry x="1644" y="325" width="220" height="300" as="geometry">
            <mxRectangle x="550" y="140" width="160" height="26" as="alternateBounds" />
          </mxGeometry>
        </mxCell>
        <mxCell id="YJZqjUyzHQ_o85CFt1zB-59" value="- _cart : List&lt;CustomerItems&gt;" style="text;align=left;verticalAlign=top;spacingLeft=4;spacingRight=4;overflow=hidden;rotatable=0;points=[[0,0.5],[1,0.5]];portConstraint=eastwest;" parent="YJZqjUyzHQ_o85CFt1zB-58" vertex="1">
          <mxGeometry y="26" width="220" height="26" as="geometry" />
        </mxCell>
        <mxCell id="YJZqjUyzHQ_o85CFt1zB-60" value="- _listOfProducts : List&lt;Product&gt;" style="text;align=left;verticalAlign=top;spacingLeft=4;spacingRight=4;overflow=hidden;rotatable=0;points=[[0,0.5],[1,0.5]];portConstraint=eastwest;rounded=0;shadow=0;html=0;" parent="YJZqjUyzHQ_o85CFt1zB-58" vertex="1">
          <mxGeometry y="52" width="220" height="26" as="geometry" />
        </mxCell>
        <mxCell id="YJZqjUyzHQ_o85CFt1zB-61" value="- _listOfDiscounts : List&lt;Discount&gt;" style="text;align=left;verticalAlign=top;spacingLeft=4;spacingRight=4;overflow=hidden;rotatable=0;points=[[0,0.5],[1,0.5]];portConstraint=eastwest;rounded=0;shadow=0;html=0;" parent="YJZqjUyzHQ_o85CFt1zB-58" vertex="1">
          <mxGeometry y="78" width="220" height="26" as="geometry" />
        </mxCell>
        <mxCell id="YJZqjUyzHQ_o85CFt1zB-62" value="- _receipt : Receipt" style="text;align=left;verticalAlign=top;spacingLeft=4;spacingRight=4;overflow=hidden;rotatable=0;points=[[0,0.5],[1,0.5]];portConstraint=eastwest;rounded=0;shadow=0;html=0;" parent="YJZqjUyzHQ_o85CFt1zB-58" vertex="1">
          <mxGeometry y="104" width="220" height="26" as="geometry" />
        </mxCell>
        <mxCell id="YJZqjUyzHQ_o85CFt1zB-63" value="- _returnToMainMenu : Action" style="text;align=left;verticalAlign=top;spacingLeft=4;spacingRight=4;overflow=hidden;rotatable=0;points=[[0,0.5],[1,0.5]];portConstraint=eastwest;rounded=0;shadow=0;html=0;" parent="YJZqjUyzHQ_o85CFt1zB-58" vertex="1">
          <mxGeometry y="130" width="220" height="26" as="geometry" />
        </mxCell>
        <mxCell id="YJZqjUyzHQ_o85CFt1zB-64" value="" style="line;html=1;strokeWidth=1;align=left;verticalAlign=middle;spacingTop=-1;spacingLeft=3;spacingRight=3;rotatable=0;labelPosition=right;points=[];portConstraint=eastwest;" parent="YJZqjUyzHQ_o85CFt1zB-58" vertex="1">
          <mxGeometry y="156" width="220" height="8" as="geometry" />
        </mxCell>
        <mxCell id="YJZqjUyzHQ_o85CFt1zB-65" value="+ StartShopping() : void" style="text;align=left;verticalAlign=top;spacingLeft=4;spacingRight=4;overflow=hidden;rotatable=0;points=[[0,0.5],[1,0.5]];portConstraint=eastwest;" parent="YJZqjUyzHQ_o85CFt1zB-58" vertex="1">
          <mxGeometry y="164" width="220" height="26" as="geometry" />
        </mxCell>
        <mxCell id="YJZqjUyzHQ_o85CFt1zB-66" value="- ProcessCart(DateTime) : decimal" style="text;align=left;verticalAlign=top;spacingLeft=4;spacingRight=4;overflow=hidden;rotatable=0;points=[[0,0.5],[1,0.5]];portConstraint=eastwest;" parent="YJZqjUyzHQ_o85CFt1zB-58" vertex="1">
          <mxGeometry y="190" width="220" height="26" as="geometry" />
        </mxCell>
        <mxCell id="YJZqjUyzHQ_o85CFt1zB-67" value="- ProcessCommand(string) : void" style="text;align=left;verticalAlign=top;spacingLeft=4;spacingRight=4;overflow=hidden;rotatable=0;points=[[0,0.5],[1,0.5]];portConstraint=eastwest;" parent="YJZqjUyzHQ_o85CFt1zB-58" vertex="1">
          <mxGeometry y="216" width="220" height="26" as="geometry" />
        </mxCell>
        <mxCell id="YJZqjUyzHQ_o85CFt1zB-68" value="- AddToCart(Product, int) : void" style="text;align=left;verticalAlign=top;spacingLeft=4;spacingRight=4;overflow=hidden;rotatable=0;points=[[0,0.5],[1,0.5]];portConstraint=eastwest;" parent="YJZqjUyzHQ_o85CFt1zB-58" vertex="1">
          <mxGeometry y="242" width="220" height="26" as="geometry" />
        </mxCell>
        <mxCell id="YJZqjUyzHQ_o85CFt1zB-69" value="+ ReturnToMainMenu(Action) : void" style="text;align=left;verticalAlign=top;spacingLeft=4;spacingRight=4;overflow=hidden;rotatable=0;points=[[0,0.5],[1,0.5]];portConstraint=eastwest;" parent="YJZqjUyzHQ_o85CFt1zB-58" vertex="1">
          <mxGeometry y="268" width="220" height="26" as="geometry" />
        </mxCell>
        <mxCell id="YJZqjUyzHQ_o85CFt1zB-71" value="Receipt" style="swimlane;fontStyle=0;align=center;verticalAlign=top;childLayout=stackLayout;horizontal=1;startSize=26;horizontalStack=0;resizeParent=1;resizeLast=0;collapsible=1;marginBottom=0;rounded=0;shadow=0;strokeWidth=1;" parent="WIyWlLk6GJQsqaUBKTNV-1" vertex="1">
          <mxGeometry x="1887" y="325" width="290" height="203" as="geometry">
            <mxRectangle x="550" y="140" width="160" height="26" as="alternateBounds" />
          </mxGeometry>
        </mxCell>
        <mxCell id="YJZqjUyzHQ_o85CFt1zB-72" value="- _receiptFileHandler : ReceiptFileHandler" style="text;align=left;verticalAlign=top;spacingLeft=4;spacingRight=4;overflow=hidden;rotatable=0;points=[[0,0.5],[1,0.5]];portConstraint=eastwest;" parent="YJZqjUyzHQ_o85CFt1zB-71" vertex="1">
          <mxGeometry y="26" width="290" height="26" as="geometry" />
        </mxCell>
        <mxCell id="YJZqjUyzHQ_o85CFt1zB-73" value="- _receiptFormatter : ReceiptFormatter" style="text;align=left;verticalAlign=top;spacingLeft=4;spacingRight=4;overflow=hidden;rotatable=0;points=[[0,0.5],[1,0.5]];portConstraint=eastwest;rounded=0;shadow=0;html=0;" parent="YJZqjUyzHQ_o85CFt1zB-71" vertex="1">
          <mxGeometry y="52" width="290" height="26" as="geometry" />
        </mxCell>
        <mxCell id="YJZqjUyzHQ_o85CFt1zB-74" value="- _receiptContent : string" style="text;align=left;verticalAlign=top;spacingLeft=4;spacingRight=4;overflow=hidden;rotatable=0;points=[[0,0.5],[1,0.5]];portConstraint=eastwest;rounded=0;shadow=0;html=0;" parent="YJZqjUyzHQ_o85CFt1zB-71" vertex="1">
          <mxGeometry y="78" width="290" height="26" as="geometry" />
        </mxCell>
        <mxCell id="YJZqjUyzHQ_o85CFt1zB-207" value="- _receiptFilePath : string" style="text;align=left;verticalAlign=top;spacingLeft=4;spacingRight=4;overflow=hidden;rotatable=0;points=[[0,0.5],[1,0.5]];portConstraint=eastwest;rounded=0;shadow=0;html=0;" parent="YJZqjUyzHQ_o85CFt1zB-71" vertex="1">
          <mxGeometry y="104" width="290" height="26" as="geometry" />
        </mxCell>
        <mxCell id="YJZqjUyzHQ_o85CFt1zB-77" value="" style="line;html=1;strokeWidth=1;align=left;verticalAlign=middle;spacingTop=-1;spacingLeft=3;spacingRight=3;rotatable=0;labelPosition=right;points=[];portConstraint=eastwest;" parent="YJZqjUyzHQ_o85CFt1zB-71" vertex="1">
          <mxGeometry y="130" width="290" height="8" as="geometry" />
        </mxCell>
        <mxCell id="YJZqjUyzHQ_o85CFt1zB-78" value="+ SaveReceipt(List&lt;CustomerItems, decimal) : void" style="text;align=left;verticalAlign=top;spacingLeft=4;spacingRight=4;overflow=hidden;rotatable=0;points=[[0,0.5],[1,0.5]];portConstraint=eastwest;" parent="YJZqjUyzHQ_o85CFt1zB-71" vertex="1">
          <mxGeometry y="138" width="290" height="26" as="geometry" />
        </mxCell>
        <mxCell id="YJZqjUyzHQ_o85CFt1zB-79" value="+ DisplayReceipt() : void" style="text;align=left;verticalAlign=top;spacingLeft=4;spacingRight=4;overflow=hidden;rotatable=0;points=[[0,0.5],[1,0.5]];portConstraint=eastwest;" parent="YJZqjUyzHQ_o85CFt1zB-71" vertex="1">
          <mxGeometry y="164" width="290" height="26" as="geometry" />
        </mxCell>
        <mxCell id="YJZqjUyzHQ_o85CFt1zB-178" value="" style="rounded=0;orthogonalLoop=1;jettySize=auto;html=1;endArrow=block;endFill=0;entryX=1;entryY=0.5;entryDx=0;entryDy=0;" parent="WIyWlLk6GJQsqaUBKTNV-1" target="YJZqjUyzHQ_o85CFt1zB-78" edge="1">
          <mxGeometry relative="1" as="geometry">
            <mxPoint x="2254" y="476" as="sourcePoint" />
            <mxPoint x="2122" y="491" as="targetPoint" />
          </mxGeometry>
        </mxCell>
        <mxCell id="YJZqjUyzHQ_o85CFt1zB-83" value="ReceiptFileHandler&#xa;" style="swimlane;fontStyle=0;align=center;verticalAlign=top;childLayout=stackLayout;horizontal=1;startSize=26;horizontalStack=0;resizeParent=1;resizeLast=0;collapsible=1;marginBottom=0;rounded=0;shadow=0;strokeWidth=1;" parent="WIyWlLk6GJQsqaUBKTNV-1" vertex="1">
          <mxGeometry x="2260" y="440" width="290" height="110" as="geometry">
            <mxRectangle x="550" y="140" width="160" height="26" as="alternateBounds" />
          </mxGeometry>
        </mxCell>
        <mxCell id="YJZqjUyzHQ_o85CFt1zB-84" value="+ CreateReceiptFilePath(string, string) : string" style="text;align=left;verticalAlign=top;spacingLeft=4;spacingRight=4;overflow=hidden;rotatable=0;points=[[0,0.5],[1,0.5]];portConstraint=eastwest;" parent="YJZqjUyzHQ_o85CFt1zB-83" vertex="1">
          <mxGeometry y="26" width="290" height="26" as="geometry" />
        </mxCell>
        <mxCell id="YJZqjUyzHQ_o85CFt1zB-85" value="+ GetNextReceiptNumber(string) : int" style="text;align=left;verticalAlign=top;spacingLeft=4;spacingRight=4;overflow=hidden;rotatable=0;points=[[0,0.5],[1,0.5]];portConstraint=eastwest;rounded=0;shadow=0;html=0;" parent="YJZqjUyzHQ_o85CFt1zB-83" vertex="1">
          <mxGeometry y="52" width="290" height="26" as="geometry" />
        </mxCell>
        <mxCell id="YJZqjUyzHQ_o85CFt1zB-86" value="+ SaveReceiptToFile(string, string) : void" style="text;align=left;verticalAlign=top;spacingLeft=4;spacingRight=4;overflow=hidden;rotatable=0;points=[[0,0.5],[1,0.5]];portConstraint=eastwest;rounded=0;shadow=0;html=1;" parent="YJZqjUyzHQ_o85CFt1zB-83" vertex="1">
          <mxGeometry y="78" width="290" height="26" as="geometry" />
        </mxCell>
        <mxCell id="YJZqjUyzHQ_o85CFt1zB-90" value="ReceiptFormatter&#xa;" style="swimlane;fontStyle=0;align=center;verticalAlign=top;childLayout=stackLayout;horizontal=1;startSize=26;horizontalStack=0;resizeParent=1;resizeLast=0;collapsible=1;marginBottom=0;rounded=0;shadow=0;strokeWidth=1;" parent="WIyWlLk6GJQsqaUBKTNV-1" vertex="1">
          <mxGeometry x="2250" y="360" width="330" height="55" as="geometry">
            <mxRectangle x="550" y="140" width="160" height="26" as="alternateBounds" />
          </mxGeometry>
        </mxCell>
        <mxCell id="YJZqjUyzHQ_o85CFt1zB-91" value="+ FormatReceipt(List&lt;CustomerItems&gt;, decimal, int) : string" style="text;align=left;verticalAlign=top;spacingLeft=4;spacingRight=4;overflow=hidden;rotatable=0;points=[[0,0.5],[1,0.5]];portConstraint=eastwest;" parent="YJZqjUyzHQ_o85CFt1zB-90" vertex="1">
          <mxGeometry y="26" width="330" height="26" as="geometry" />
        </mxCell>
        <mxCell id="YJZqjUyzHQ_o85CFt1zB-201" style="edgeStyle=orthogonalEdgeStyle;rounded=0;orthogonalLoop=1;jettySize=auto;html=1;endArrow=block;endFill=0;" parent="WIyWlLk6GJQsqaUBKTNV-1" source="YJZqjUyzHQ_o85CFt1zB-94" edge="1">
          <mxGeometry relative="1" as="geometry">
            <mxPoint x="1065" y="550" as="targetPoint" />
          </mxGeometry>
        </mxCell>
        <mxCell id="YJZqjUyzHQ_o85CFt1zB-202" style="edgeStyle=orthogonalEdgeStyle;rounded=0;orthogonalLoop=1;jettySize=auto;html=1;exitX=0.75;exitY=0;exitDx=0;exitDy=0;endArrow=block;endFill=0;" parent="WIyWlLk6GJQsqaUBKTNV-1" source="YJZqjUyzHQ_o85CFt1zB-94" edge="1">
          <mxGeometry relative="1" as="geometry">
            <Array as="points">
              <mxPoint x="1108" y="929" />
              <mxPoint x="1755" y="929" />
            </Array>
            <mxPoint x="1754" y="628" as="targetPoint" />
          </mxGeometry>
        </mxCell>
        <mxCell id="YJZqjUyzHQ_o85CFt1zB-203" style="edgeStyle=orthogonalEdgeStyle;rounded=0;orthogonalLoop=1;jettySize=auto;html=1;entryX=0.5;entryY=1;entryDx=0;entryDy=0;endArrow=block;endFill=0;" parent="WIyWlLk6GJQsqaUBKTNV-1" source="YJZqjUyzHQ_o85CFt1zB-94" target="YJZqjUyzHQ_o85CFt1zB-71" edge="1">
          <mxGeometry relative="1" as="geometry" />
        </mxCell>
        <mxCell id="YJZqjUyzHQ_o85CFt1zB-94" value="MenuGraphics" style="swimlane;fontStyle=0;align=center;verticalAlign=top;childLayout=stackLayout;horizontal=1;startSize=26;horizontalStack=0;resizeParent=1;resizeLast=0;collapsible=1;marginBottom=0;rounded=0;shadow=0;strokeWidth=1;" parent="WIyWlLk6GJQsqaUBKTNV-1" vertex="1">
          <mxGeometry x="980" y="990" width="170" height="55" as="geometry">
            <mxRectangle x="550" y="140" width="160" height="26" as="alternateBounds" />
          </mxGeometry>
        </mxCell>
        <mxCell id="YJZqjUyzHQ_o85CFt1zB-95" value="+ ShowMenuGraphics() : void" style="text;align=left;verticalAlign=top;spacingLeft=4;spacingRight=4;overflow=hidden;rotatable=0;points=[[0,0.5],[1,0.5]];portConstraint=eastwest;" parent="YJZqjUyzHQ_o85CFt1zB-94" vertex="1">
          <mxGeometry y="26" width="170" height="26" as="geometry" />
        </mxCell>
        <mxCell id="YJZqjUyzHQ_o85CFt1zB-98" value="Program&#xa;" style="swimlane;fontStyle=0;align=center;verticalAlign=top;childLayout=stackLayout;horizontal=1;startSize=26;horizontalStack=0;resizeParent=1;resizeLast=0;collapsible=1;marginBottom=0;rounded=0;shadow=0;strokeWidth=1;" parent="WIyWlLk6GJQsqaUBKTNV-1" vertex="1">
          <mxGeometry x="1060" y="-340" width="170" height="55" as="geometry">
            <mxRectangle x="550" y="140" width="160" height="26" as="alternateBounds" />
          </mxGeometry>
        </mxCell>
        <mxCell id="YJZqjUyzHQ_o85CFt1zB-99" value="+ Main(args: String[]): void" style="text;align=left;verticalAlign=top;spacingLeft=4;spacingRight=4;overflow=hidden;rotatable=0;points=[[0,0.5],[1,0.5]];portConstraint=eastwest;" parent="YJZqjUyzHQ_o85CFt1zB-98" vertex="1">
          <mxGeometry y="26" width="170" height="26" as="geometry" />
        </mxCell>
        <mxCell id="YJZqjUyzHQ_o85CFt1zB-188" value="" style="rounded=0;orthogonalLoop=1;jettySize=auto;html=1;endArrow=block;endFill=0;" parent="WIyWlLk6GJQsqaUBKTNV-1" source="YJZqjUyzHQ_o85CFt1zB-100" target="YJZqjUyzHQ_o85CFt1zB-99" edge="1">
          <mxGeometry relative="1" as="geometry" />
        </mxCell>
        <mxCell id="YJZqjUyzHQ_o85CFt1zB-100" value="App" style="swimlane;fontStyle=0;align=center;verticalAlign=top;childLayout=stackLayout;horizontal=1;startSize=26;horizontalStack=0;resizeParent=1;resizeLast=0;collapsible=1;marginBottom=0;rounded=0;shadow=0;strokeWidth=1;" parent="WIyWlLk6GJQsqaUBKTNV-1" vertex="1">
          <mxGeometry x="1000" y="-190" width="290" height="270" as="geometry">
            <mxRectangle x="550" y="140" width="160" height="26" as="alternateBounds" />
          </mxGeometry>
        </mxCell>
        <mxCell id="YJZqjUyzHQ_o85CFt1zB-101" value="- _productFileHandler : FileHandler&lt;Product&gt;" style="text;align=left;verticalAlign=top;spacingLeft=4;spacingRight=4;overflow=hidden;rotatable=0;points=[[0,0.5],[1,0.5]];portConstraint=eastwest;" parent="YJZqjUyzHQ_o85CFt1zB-100" vertex="1">
          <mxGeometry y="26" width="290" height="26" as="geometry" />
        </mxCell>
        <mxCell id="YJZqjUyzHQ_o85CFt1zB-102" value="- _discountFileHandler : FileHandler&lt;Discount&gt;" style="text;align=left;verticalAlign=top;spacingLeft=4;spacingRight=4;overflow=hidden;rotatable=0;points=[[0,0.5],[1,0.5]];portConstraint=eastwest;rounded=0;shadow=0;html=0;" parent="YJZqjUyzHQ_o85CFt1zB-100" vertex="1">
          <mxGeometry y="52" width="290" height="26" as="geometry" />
        </mxCell>
        <mxCell id="YJZqjUyzHQ_o85CFt1zB-103" value="- _displayList : DisplayList" style="text;align=left;verticalAlign=top;spacingLeft=4;spacingRight=4;overflow=hidden;rotatable=0;points=[[0,0.5],[1,0.5]];portConstraint=eastwest;rounded=0;shadow=0;html=0;" parent="YJZqjUyzHQ_o85CFt1zB-100" vertex="1">
          <mxGeometry y="78" width="290" height="26" as="geometry" />
        </mxCell>
        <mxCell id="YJZqjUyzHQ_o85CFt1zB-111" value="- _productHandler : ProductHandler" style="text;align=left;verticalAlign=top;spacingLeft=4;spacingRight=4;overflow=hidden;rotatable=0;points=[[0,0.5],[1,0.5]];portConstraint=eastwest;rounded=0;shadow=0;html=0;" parent="YJZqjUyzHQ_o85CFt1zB-100" vertex="1">
          <mxGeometry y="104" width="290" height="26" as="geometry" />
        </mxCell>
        <mxCell id="YJZqjUyzHQ_o85CFt1zB-109" value="- _discountHandler : DiscountHandler" style="text;align=left;verticalAlign=top;spacingLeft=4;spacingRight=4;overflow=hidden;rotatable=0;points=[[0,0.5],[1,0.5]];portConstraint=eastwest;rounded=0;shadow=0;html=0;" parent="YJZqjUyzHQ_o85CFt1zB-100" vertex="1">
          <mxGeometry y="130" width="290" height="26" as="geometry" />
        </mxCell>
        <mxCell id="YJZqjUyzHQ_o85CFt1zB-110" value="- _receipt : Receipt" style="text;align=left;verticalAlign=top;spacingLeft=4;spacingRight=4;overflow=hidden;rotatable=0;points=[[0,0.5],[1,0.5]];portConstraint=eastwest;rounded=0;shadow=0;html=0;" parent="YJZqjUyzHQ_o85CFt1zB-100" vertex="1">
          <mxGeometry y="156" width="290" height="26" as="geometry" />
        </mxCell>
        <mxCell id="YJZqjUyzHQ_o85CFt1zB-108" value="- _customerHandler : CustomerHandler" style="text;align=left;verticalAlign=top;spacingLeft=4;spacingRight=4;overflow=hidden;rotatable=0;points=[[0,0.5],[1,0.5]];portConstraint=eastwest;rounded=0;shadow=0;html=0;" parent="YJZqjUyzHQ_o85CFt1zB-100" vertex="1">
          <mxGeometry y="182" width="290" height="26" as="geometry" />
        </mxCell>
        <mxCell id="YJZqjUyzHQ_o85CFt1zB-107" value="- _menus : Menus" style="text;align=left;verticalAlign=top;spacingLeft=4;spacingRight=4;overflow=hidden;rotatable=0;points=[[0,0.5],[1,0.5]];portConstraint=eastwest;rounded=0;shadow=0;html=0;" parent="YJZqjUyzHQ_o85CFt1zB-100" vertex="1">
          <mxGeometry y="208" width="290" height="26" as="geometry" />
        </mxCell>
        <mxCell id="YJZqjUyzHQ_o85CFt1zB-104" value="" style="line;html=1;strokeWidth=1;align=left;verticalAlign=middle;spacingTop=-1;spacingLeft=3;spacingRight=3;rotatable=0;labelPosition=right;points=[];portConstraint=eastwest;" parent="YJZqjUyzHQ_o85CFt1zB-100" vertex="1">
          <mxGeometry y="234" width="290" height="8" as="geometry" />
        </mxCell>
        <mxCell id="YJZqjUyzHQ_o85CFt1zB-105" value="+ Run() : void" style="text;align=left;verticalAlign=top;spacingLeft=4;spacingRight=4;overflow=hidden;rotatable=0;points=[[0,0.5],[1,0.5]];portConstraint=eastwest;" parent="YJZqjUyzHQ_o85CFt1zB-100" vertex="1">
          <mxGeometry y="242" width="290" height="26" as="geometry" />
        </mxCell>
        <mxCell id="YJZqjUyzHQ_o85CFt1zB-191" style="rounded=0;orthogonalLoop=1;jettySize=auto;html=1;entryX=0;entryY=0.5;entryDx=0;entryDy=0;endArrow=block;endFill=0;edgeStyle=orthogonalEdgeStyle;" parent="WIyWlLk6GJQsqaUBKTNV-1" source="YJZqjUyzHQ_o85CFt1zB-112" target="YJZqjUyzHQ_o85CFt1zB-107" edge="1">
          <mxGeometry relative="1" as="geometry">
            <Array as="points">
              <mxPoint x="590" y="157" />
              <mxPoint x="590" y="31" />
            </Array>
          </mxGeometry>
        </mxCell>
        <mxCell id="YJZqjUyzHQ_o85CFt1zB-112" value="FilePathManager" style="swimlane;fontStyle=0;align=center;verticalAlign=top;childLayout=stackLayout;horizontal=1;startSize=26;horizontalStack=0;resizeParent=1;resizeLast=0;collapsible=1;marginBottom=0;rounded=0;shadow=0;strokeWidth=1;" parent="WIyWlLk6GJQsqaUBKTNV-1" vertex="1">
          <mxGeometry x="105" y="120" width="150" height="105" as="geometry">
            <mxRectangle x="550" y="140" width="160" height="26" as="alternateBounds" />
          </mxGeometry>
        </mxCell>
        <mxCell id="YJZqjUyzHQ_o85CFt1zB-113" value="+ ProductFilePath : string" style="text;align=left;verticalAlign=top;spacingLeft=4;spacingRight=4;overflow=hidden;rotatable=0;points=[[0,0.5],[1,0.5]];portConstraint=eastwest;" parent="YJZqjUyzHQ_o85CFt1zB-112" vertex="1">
          <mxGeometry y="26" width="150" height="24" as="geometry" />
        </mxCell>
        <mxCell id="YJZqjUyzHQ_o85CFt1zB-114" value="+ DiscountFilePath : string" style="text;align=left;verticalAlign=top;spacingLeft=4;spacingRight=4;overflow=hidden;rotatable=0;points=[[0,0.5],[1,0.5]];portConstraint=eastwest;" parent="YJZqjUyzHQ_o85CFt1zB-112" vertex="1">
          <mxGeometry y="50" width="150" height="24" as="geometry" />
        </mxCell>
        <mxCell id="YJZqjUyzHQ_o85CFt1zB-208" value="+ ReceiptFilePath : string" style="text;align=left;verticalAlign=top;spacingLeft=4;spacingRight=4;overflow=hidden;rotatable=0;points=[[0,0.5],[1,0.5]];portConstraint=eastwest;" parent="YJZqjUyzHQ_o85CFt1zB-112" vertex="1">
          <mxGeometry y="74" width="150" height="24" as="geometry" />
        </mxCell>
        <mxCell id="YJZqjUyzHQ_o85CFt1zB-185" value="" style="rounded=0;orthogonalLoop=1;jettySize=auto;html=1;endArrow=block;endFill=0;" parent="WIyWlLk6GJQsqaUBKTNV-1" edge="1">
          <mxGeometry relative="1" as="geometry">
            <mxPoint x="660" y="491.8423076923078" as="sourcePoint" />
            <mxPoint x="706" y="492" as="targetPoint" />
          </mxGeometry>
        </mxCell>
        <mxCell id="YJZqjUyzHQ_o85CFt1zB-116" value="Product&#xa;" style="swimlane;fontStyle=0;align=center;verticalAlign=top;childLayout=stackLayout;horizontal=1;startSize=26;horizontalStack=0;resizeParent=1;resizeLast=0;collapsible=1;marginBottom=0;rounded=0;shadow=0;strokeWidth=1;" parent="WIyWlLk6GJQsqaUBKTNV-1" vertex="1">
          <mxGeometry x="430" y="395" width="230" height="190" as="geometry">
            <mxRectangle x="550" y="140" width="160" height="26" as="alternateBounds" />
          </mxGeometry>
        </mxCell>
        <mxCell id="YJZqjUyzHQ_o85CFt1zB-117" value="+ PLU : int" style="text;align=left;verticalAlign=top;spacingLeft=4;spacingRight=4;overflow=hidden;rotatable=0;points=[[0,0.5],[1,0.5]];portConstraint=eastwest;" parent="YJZqjUyzHQ_o85CFt1zB-116" vertex="1">
          <mxGeometry y="26" width="230" height="26" as="geometry" />
        </mxCell>
        <mxCell id="YJZqjUyzHQ_o85CFt1zB-126" value="+ Name : string" style="text;align=left;verticalAlign=top;spacingLeft=4;spacingRight=4;overflow=hidden;rotatable=0;points=[[0,0.5],[1,0.5]];portConstraint=eastwest;" parent="YJZqjUyzHQ_o85CFt1zB-116" vertex="1">
          <mxGeometry y="52" width="230" height="26" as="geometry" />
        </mxCell>
        <mxCell id="YJZqjUyzHQ_o85CFt1zB-127" value="+ Price : decimal" style="text;align=left;verticalAlign=top;spacingLeft=4;spacingRight=4;overflow=hidden;rotatable=0;points=[[0,0.5],[1,0.5]];portConstraint=eastwest;" parent="YJZqjUyzHQ_o85CFt1zB-116" vertex="1">
          <mxGeometry y="78" width="230" height="26" as="geometry" />
        </mxCell>
        <mxCell id="YJZqjUyzHQ_o85CFt1zB-125" value="+ PriceType : PriceType" style="text;align=left;verticalAlign=top;spacingLeft=4;spacingRight=4;overflow=hidden;rotatable=0;points=[[0,0.5],[1,0.5]];portConstraint=eastwest;" parent="YJZqjUyzHQ_o85CFt1zB-116" vertex="1">
          <mxGeometry y="104" width="230" height="26" as="geometry" />
        </mxCell>
        <mxCell id="YJZqjUyzHQ_o85CFt1zB-118" value="" style="line;html=1;strokeWidth=1;align=left;verticalAlign=middle;spacingTop=-1;spacingLeft=3;spacingRight=3;rotatable=0;labelPosition=right;points=[];portConstraint=eastwest;" parent="YJZqjUyzHQ_o85CFt1zB-116" vertex="1">
          <mxGeometry y="130" width="230" height="8" as="geometry" />
        </mxCell>
        <mxCell id="YJZqjUyzHQ_o85CFt1zB-119" value="+ GetFoodTaxAmount(decimal) : decimal" style="text;align=left;verticalAlign=top;spacingLeft=4;spacingRight=4;overflow=hidden;rotatable=0;points=[[0,0.5],[1,0.5]];portConstraint=eastwest;" parent="YJZqjUyzHQ_o85CFt1zB-116" vertex="1">
          <mxGeometry y="138" width="230" height="26" as="geometry" />
        </mxCell>
        <mxCell id="YJZqjUyzHQ_o85CFt1zB-120" value="+ ToString() : string" style="text;align=left;verticalAlign=top;spacingLeft=4;spacingRight=4;overflow=hidden;rotatable=0;points=[[0,0.5],[1,0.5]];portConstraint=eastwest;" parent="YJZqjUyzHQ_o85CFt1zB-116" vertex="1">
          <mxGeometry y="164" width="230" height="26" as="geometry" />
        </mxCell>
        <mxCell id="YJZqjUyzHQ_o85CFt1zB-128" value="Discount&#xa;" style="swimlane;fontStyle=0;align=center;verticalAlign=top;childLayout=stackLayout;horizontal=1;startSize=26;horizontalStack=0;resizeParent=1;resizeLast=0;collapsible=1;marginBottom=0;rounded=0;shadow=0;strokeWidth=1;" parent="WIyWlLk6GJQsqaUBKTNV-1" vertex="1">
          <mxGeometry x="-150" y="340" width="220" height="223" as="geometry">
            <mxRectangle x="550" y="140" width="160" height="26" as="alternateBounds" />
          </mxGeometry>
        </mxCell>
        <mxCell id="YJZqjUyzHQ_o85CFt1zB-129" value="+ PLU : int" style="text;align=left;verticalAlign=top;spacingLeft=4;spacingRight=4;overflow=hidden;rotatable=0;points=[[0,0.5],[1,0.5]];portConstraint=eastwest;" parent="YJZqjUyzHQ_o85CFt1zB-128" vertex="1">
          <mxGeometry y="26" width="220" height="26" as="geometry" />
        </mxCell>
        <mxCell id="YJZqjUyzHQ_o85CFt1zB-130" value="+ DiscountAmount : decimal" style="text;align=left;verticalAlign=top;spacingLeft=4;spacingRight=4;overflow=hidden;rotatable=0;points=[[0,0.5],[1,0.5]];portConstraint=eastwest;" parent="YJZqjUyzHQ_o85CFt1zB-128" vertex="1">
          <mxGeometry y="52" width="220" height="26" as="geometry" />
        </mxCell>
        <mxCell id="YJZqjUyzHQ_o85CFt1zB-131" value="+ DiscountType : DiscountType" style="text;align=left;verticalAlign=top;spacingLeft=4;spacingRight=4;overflow=hidden;rotatable=0;points=[[0,0.5],[1,0.5]];portConstraint=eastwest;" parent="YJZqjUyzHQ_o85CFt1zB-128" vertex="1">
          <mxGeometry y="78" width="220" height="26" as="geometry" />
        </mxCell>
        <mxCell id="YJZqjUyzHQ_o85CFt1zB-136" value="+ StartDate : DateTime" style="text;align=left;verticalAlign=top;spacingLeft=4;spacingRight=4;overflow=hidden;rotatable=0;points=[[0,0.5],[1,0.5]];portConstraint=eastwest;" parent="YJZqjUyzHQ_o85CFt1zB-128" vertex="1">
          <mxGeometry y="104" width="220" height="26" as="geometry" />
        </mxCell>
        <mxCell id="YJZqjUyzHQ_o85CFt1zB-132" value="+ EndDate : DateTime" style="text;align=left;verticalAlign=top;spacingLeft=4;spacingRight=4;overflow=hidden;rotatable=0;points=[[0,0.5],[1,0.5]];portConstraint=eastwest;" parent="YJZqjUyzHQ_o85CFt1zB-128" vertex="1">
          <mxGeometry y="130" width="220" height="26" as="geometry" />
        </mxCell>
        <mxCell id="YJZqjUyzHQ_o85CFt1zB-133" value="" style="line;html=1;strokeWidth=1;align=left;verticalAlign=middle;spacingTop=-1;spacingLeft=3;spacingRight=3;rotatable=0;labelPosition=right;points=[];portConstraint=eastwest;" parent="YJZqjUyzHQ_o85CFt1zB-128" vertex="1">
          <mxGeometry y="156" width="220" height="8" as="geometry" />
        </mxCell>
        <mxCell id="YJZqjUyzHQ_o85CFt1zB-137" value="+ IsValid(DateTime) : bool" style="text;align=left;verticalAlign=top;spacingLeft=4;spacingRight=4;overflow=hidden;rotatable=0;points=[[0,0.5],[1,0.5]];portConstraint=eastwest;" parent="YJZqjUyzHQ_o85CFt1zB-128" vertex="1">
          <mxGeometry y="164" width="220" height="26" as="geometry" />
        </mxCell>
        <mxCell id="YJZqjUyzHQ_o85CFt1zB-135" value="+ ToString() : string" style="text;align=left;verticalAlign=top;spacingLeft=4;spacingRight=4;overflow=hidden;rotatable=0;points=[[0,0.5],[1,0.5]];portConstraint=eastwest;" parent="YJZqjUyzHQ_o85CFt1zB-128" vertex="1">
          <mxGeometry y="190" width="220" height="26" as="geometry" />
        </mxCell>
        <mxCell id="YJZqjUyzHQ_o85CFt1zB-182" value="" style="rounded=0;orthogonalLoop=1;jettySize=auto;html=1;endArrow=block;endFill=0;exitX=1.005;exitY=0.026;exitDx=0;exitDy=0;exitPerimeter=0;entryX=-0.014;entryY=0.846;entryDx=0;entryDy=0;entryPerimeter=0;" parent="WIyWlLk6GJQsqaUBKTNV-1" source="YJZqjUyzHQ_o85CFt1zB-141" target="YJZqjUyzHQ_o85CFt1zB-62" edge="1">
          <mxGeometry relative="1" as="geometry">
            <mxPoint x="1590" y="450" as="targetPoint" />
          </mxGeometry>
        </mxCell>
        <mxCell id="YJZqjUyzHQ_o85CFt1zB-138" value="CustomerItems&#xa;" style="swimlane;fontStyle=0;align=center;verticalAlign=top;childLayout=stackLayout;horizontal=1;startSize=26;horizontalStack=0;resizeParent=1;resizeLast=0;collapsible=1;marginBottom=0;rounded=0;shadow=0;strokeWidth=1;" parent="WIyWlLk6GJQsqaUBKTNV-1" vertex="1">
          <mxGeometry x="1235" y="373" width="377" height="204" as="geometry">
            <mxRectangle x="550" y="140" width="160" height="26" as="alternateBounds" />
          </mxGeometry>
        </mxCell>
        <mxCell id="YJZqjUyzHQ_o85CFt1zB-139" value="+ Product : Product" style="text;align=left;verticalAlign=top;spacingLeft=4;spacingRight=4;overflow=hidden;rotatable=0;points=[[0,0.5],[1,0.5]];portConstraint=eastwest;" parent="YJZqjUyzHQ_o85CFt1zB-138" vertex="1">
          <mxGeometry y="26" width="377" height="26" as="geometry" />
        </mxCell>
        <mxCell id="YJZqjUyzHQ_o85CFt1zB-140" value="+ Quantity : int" style="text;align=left;verticalAlign=top;spacingLeft=4;spacingRight=4;overflow=hidden;rotatable=0;points=[[0,0.5],[1,0.5]];portConstraint=eastwest;" parent="YJZqjUyzHQ_o85CFt1zB-138" vertex="1">
          <mxGeometry y="52" width="377" height="26" as="geometry" />
        </mxCell>
        <mxCell id="YJZqjUyzHQ_o85CFt1zB-141" value="+ Discount : decimal" style="text;align=left;verticalAlign=top;spacingLeft=4;spacingRight=4;overflow=hidden;rotatable=0;points=[[0,0.5],[1,0.5]];portConstraint=eastwest;" parent="YJZqjUyzHQ_o85CFt1zB-138" vertex="1">
          <mxGeometry y="78" width="377" height="26" as="geometry" />
        </mxCell>
        <mxCell id="YJZqjUyzHQ_o85CFt1zB-144" value="" style="line;html=1;strokeWidth=1;align=left;verticalAlign=middle;spacingTop=-1;spacingLeft=3;spacingRight=3;rotatable=0;labelPosition=right;points=[];portConstraint=eastwest;" parent="YJZqjUyzHQ_o85CFt1zB-138" vertex="1">
          <mxGeometry y="104" width="377" height="8" as="geometry" />
        </mxCell>
        <mxCell id="YJZqjUyzHQ_o85CFt1zB-145" value="+ CalculateToPrice(DateTime, List&lt;Discount&gt;) : decimal" style="text;align=left;verticalAlign=top;spacingLeft=4;spacingRight=4;overflow=hidden;rotatable=0;points=[[0,0.5],[1,0.5]];portConstraint=eastwest;" parent="YJZqjUyzHQ_o85CFt1zB-138" vertex="1">
          <mxGeometry y="112" width="377" height="26" as="geometry" />
        </mxCell>
        <mxCell id="YJZqjUyzHQ_o85CFt1zB-205" value="- CalculateDiscount(List&lt;Discount&gt;, decimal) : decimal" style="text;align=left;verticalAlign=top;spacingLeft=4;spacingRight=4;overflow=hidden;rotatable=0;points=[[0,0.5],[1,0.5]];portConstraint=eastwest;" parent="YJZqjUyzHQ_o85CFt1zB-138" vertex="1">
          <mxGeometry y="138" width="377" height="26" as="geometry" />
        </mxCell>
        <mxCell id="YJZqjUyzHQ_o85CFt1zB-206" value="- GetApplicableDiscounts(DateTime, List&lt;Discount&gt; : List&lt;Discount&gt;" style="text;align=left;verticalAlign=top;spacingLeft=4;spacingRight=4;overflow=hidden;rotatable=0;points=[[0,0.5],[1,0.5]];portConstraint=eastwest;" parent="YJZqjUyzHQ_o85CFt1zB-138" vertex="1">
          <mxGeometry y="164" width="377" height="26" as="geometry" />
        </mxCell>
        <mxCell id="YJZqjUyzHQ_o85CFt1zB-181" value="" style="rounded=0;orthogonalLoop=1;jettySize=auto;html=1;entryX=0.003;entryY=0.754;entryDx=0;entryDy=0;endArrow=block;endFill=0;exitX=1;exitY=0.5;exitDx=0;exitDy=0;entryPerimeter=0;" parent="WIyWlLk6GJQsqaUBKTNV-1" source="YJZqjUyzHQ_o85CFt1zB-149" target="YJZqjUyzHQ_o85CFt1zB-68" edge="1">
          <mxGeometry relative="1" as="geometry">
            <mxPoint x="1450" y="585" as="sourcePoint" />
            <mxPoint x="1545" y="590" as="targetPoint" />
          </mxGeometry>
        </mxCell>
        <mxCell id="YJZqjUyzHQ_o85CFt1zB-148" value="Customer" style="swimlane;fontStyle=0;align=center;verticalAlign=top;childLayout=stackLayout;horizontal=1;startSize=26;horizontalStack=0;resizeParent=1;resizeLast=0;collapsible=1;marginBottom=0;rounded=0;shadow=0;strokeWidth=1;" parent="WIyWlLk6GJQsqaUBKTNV-1" vertex="1">
          <mxGeometry x="1355" y="611" width="120" height="80" as="geometry">
            <mxRectangle x="550" y="140" width="160" height="26" as="alternateBounds" />
          </mxGeometry>
        </mxCell>
        <mxCell id="YJZqjUyzHQ_o85CFt1zB-149" value="+ Name : string" style="text;align=left;verticalAlign=top;spacingLeft=4;spacingRight=4;overflow=hidden;rotatable=0;points=[[0,0.5],[1,0.5]];portConstraint=eastwest;" parent="YJZqjUyzHQ_o85CFt1zB-148" vertex="1">
          <mxGeometry y="26" width="120" height="26" as="geometry" />
        </mxCell>
        <mxCell id="YJZqjUyzHQ_o85CFt1zB-150" value="+ IsMember : bool" style="text;align=left;verticalAlign=top;spacingLeft=4;spacingRight=4;overflow=hidden;rotatable=0;points=[[0,0.5],[1,0.5]];portConstraint=eastwest;" parent="YJZqjUyzHQ_o85CFt1zB-148" vertex="1">
          <mxGeometry y="52" width="120" height="26" as="geometry" />
        </mxCell>
        <mxCell id="YJZqjUyzHQ_o85CFt1zB-186" value="" style="rounded=0;orthogonalLoop=1;jettySize=auto;html=1;endArrow=block;endFill=0;" parent="WIyWlLk6GJQsqaUBKTNV-1" source="YJZqjUyzHQ_o85CFt1zB-157" edge="1">
          <mxGeometry relative="1" as="geometry">
            <mxPoint x="-42" y="564" as="targetPoint" />
          </mxGeometry>
        </mxCell>
        <mxCell id="YJZqjUyzHQ_o85CFt1zB-157" value="&lt;&lt;enumeration&gt;&gt;&#xa;" style="swimlane;fontStyle=0;align=center;verticalAlign=top;childLayout=stackLayout;horizontal=1;startSize=26;horizontalStack=0;resizeParent=1;resizeLast=0;collapsible=1;marginBottom=0;rounded=0;shadow=0;strokeWidth=1;" parent="WIyWlLk6GJQsqaUBKTNV-1" vertex="1">
          <mxGeometry x="-105" y="630" width="130" height="120" as="geometry">
            <mxRectangle x="550" y="140" width="160" height="26" as="alternateBounds" />
          </mxGeometry>
        </mxCell>
        <mxCell id="YJZqjUyzHQ_o85CFt1zB-158" value="DiscountType" style="text;align=left;verticalAlign=top;spacingLeft=4;spacingRight=4;overflow=hidden;rotatable=0;points=[[0,0.5],[1,0.5]];portConstraint=eastwest;" parent="YJZqjUyzHQ_o85CFt1zB-157" vertex="1">
          <mxGeometry y="26" width="130" height="26" as="geometry" />
        </mxCell>
        <mxCell id="YJZqjUyzHQ_o85CFt1zB-161" value="" style="line;html=1;strokeWidth=1;align=left;verticalAlign=middle;spacingTop=-1;spacingLeft=3;spacingRight=3;rotatable=0;labelPosition=right;points=[];portConstraint=eastwest;" parent="YJZqjUyzHQ_o85CFt1zB-157" vertex="1">
          <mxGeometry y="52" width="130" height="8" as="geometry" />
        </mxCell>
        <mxCell id="YJZqjUyzHQ_o85CFt1zB-162" value="- Procent" style="text;align=left;verticalAlign=top;spacingLeft=4;spacingRight=4;overflow=hidden;rotatable=0;points=[[0,0.5],[1,0.5]];portConstraint=eastwest;" parent="YJZqjUyzHQ_o85CFt1zB-157" vertex="1">
          <mxGeometry y="60" width="130" height="26" as="geometry" />
        </mxCell>
        <mxCell id="YJZqjUyzHQ_o85CFt1zB-163" value="- FastBelopp" style="text;align=left;verticalAlign=top;spacingLeft=4;spacingRight=4;overflow=hidden;rotatable=0;points=[[0,0.5],[1,0.5]];portConstraint=eastwest;" parent="YJZqjUyzHQ_o85CFt1zB-157" vertex="1">
          <mxGeometry y="86" width="130" height="26" as="geometry" />
        </mxCell>
        <mxCell id="YJZqjUyzHQ_o85CFt1zB-183" value="" style="rounded=0;orthogonalLoop=1;jettySize=auto;html=1;endArrow=block;endFill=0;exitX=0.5;exitY=0;exitDx=0;exitDy=0;entryX=0.501;entryY=1.129;entryDx=0;entryDy=0;entryPerimeter=0;" parent="WIyWlLk6GJQsqaUBKTNV-1" source="YJZqjUyzHQ_o85CFt1zB-164" target="YJZqjUyzHQ_o85CFt1zB-174" edge="1">
          <mxGeometry relative="1" as="geometry">
            <mxPoint x="575" y="710" as="targetPoint" />
          </mxGeometry>
        </mxCell>
        <mxCell id="YJZqjUyzHQ_o85CFt1zB-164" value="&lt;&lt;enumeration&gt;&gt;&#xa;" style="swimlane;fontStyle=0;align=center;verticalAlign=top;childLayout=stackLayout;horizontal=1;startSize=26;horizontalStack=0;resizeParent=1;resizeLast=0;collapsible=1;marginBottom=0;rounded=0;shadow=0;strokeWidth=1;" parent="WIyWlLk6GJQsqaUBKTNV-1" vertex="1">
          <mxGeometry x="480" y="740" width="130" height="120" as="geometry">
            <mxRectangle x="550" y="140" width="160" height="26" as="alternateBounds" />
          </mxGeometry>
        </mxCell>
        <mxCell id="YJZqjUyzHQ_o85CFt1zB-165" value="PriceType" style="text;align=left;verticalAlign=top;spacingLeft=4;spacingRight=4;overflow=hidden;rotatable=0;points=[[0,0.5],[1,0.5]];portConstraint=eastwest;" parent="YJZqjUyzHQ_o85CFt1zB-164" vertex="1">
          <mxGeometry y="26" width="130" height="26" as="geometry" />
        </mxCell>
        <mxCell id="YJZqjUyzHQ_o85CFt1zB-166" value="" style="line;html=1;strokeWidth=1;align=left;verticalAlign=middle;spacingTop=-1;spacingLeft=3;spacingRight=3;rotatable=0;labelPosition=right;points=[];portConstraint=eastwest;" parent="YJZqjUyzHQ_o85CFt1zB-164" vertex="1">
          <mxGeometry y="52" width="130" height="8" as="geometry" />
        </mxCell>
        <mxCell id="YJZqjUyzHQ_o85CFt1zB-167" value="- Styckpris" style="text;align=left;verticalAlign=top;spacingLeft=4;spacingRight=4;overflow=hidden;rotatable=0;points=[[0,0.5],[1,0.5]];portConstraint=eastwest;" parent="YJZqjUyzHQ_o85CFt1zB-164" vertex="1">
          <mxGeometry y="60" width="130" height="26" as="geometry" />
        </mxCell>
        <mxCell id="YJZqjUyzHQ_o85CFt1zB-168" value="- Kilopris" style="text;align=left;verticalAlign=top;spacingLeft=4;spacingRight=4;overflow=hidden;rotatable=0;points=[[0,0.5],[1,0.5]];portConstraint=eastwest;" parent="YJZqjUyzHQ_o85CFt1zB-164" vertex="1">
          <mxGeometry y="86" width="130" height="26" as="geometry" />
        </mxCell>
        <mxCell id="YJZqjUyzHQ_o85CFt1zB-184" value="" style="rounded=0;orthogonalLoop=1;jettySize=auto;html=1;dashed=1;endArrow=block;endFill=1;" parent="WIyWlLk6GJQsqaUBKTNV-1" source="YJZqjUyzHQ_o85CFt1zB-169" target="YJZqjUyzHQ_o85CFt1zB-120" edge="1">
          <mxGeometry relative="1" as="geometry" />
        </mxCell>
        <mxCell id="YJZqjUyzHQ_o85CFt1zB-169" value="IFoodProducts&#xa;" style="swimlane;fontStyle=0;align=center;verticalAlign=top;childLayout=stackLayout;horizontal=1;startSize=26;horizontalStack=0;resizeParent=1;resizeLast=0;collapsible=1;marginBottom=0;rounded=0;shadow=0;strokeWidth=1;" parent="WIyWlLk6GJQsqaUBKTNV-1" vertex="1">
          <mxGeometry x="435.5" y="620" width="219" height="90" as="geometry">
            <mxRectangle x="550" y="140" width="160" height="26" as="alternateBounds" />
          </mxGeometry>
        </mxCell>
        <mxCell id="YJZqjUyzHQ_o85CFt1zB-170" value="+ PriceType : PriceType" style="text;align=left;verticalAlign=top;spacingLeft=4;spacingRight=4;overflow=hidden;rotatable=0;points=[[0,0.5],[1,0.5]];portConstraint=eastwest;" parent="YJZqjUyzHQ_o85CFt1zB-169" vertex="1">
          <mxGeometry y="26" width="219" height="26" as="geometry" />
        </mxCell>
        <mxCell id="YJZqjUyzHQ_o85CFt1zB-173" value="" style="line;html=1;strokeWidth=1;align=left;verticalAlign=middle;spacingTop=-1;spacingLeft=3;spacingRight=3;rotatable=0;labelPosition=right;points=[];portConstraint=eastwest;" parent="YJZqjUyzHQ_o85CFt1zB-169" vertex="1">
          <mxGeometry y="52" width="219" height="8" as="geometry" />
        </mxCell>
        <mxCell id="YJZqjUyzHQ_o85CFt1zB-174" value="GetFoodTaxAmount(decimal) : decimal" style="text;align=left;verticalAlign=top;spacingLeft=4;spacingRight=4;overflow=hidden;rotatable=0;points=[[0,0.5],[1,0.5]];portConstraint=eastwest;" parent="YJZqjUyzHQ_o85CFt1zB-169" vertex="1">
          <mxGeometry y="60" width="219" height="26" as="geometry" />
        </mxCell>
        <mxCell id="YJZqjUyzHQ_o85CFt1zB-177" value="" style="rounded=0;orthogonalLoop=1;jettySize=auto;html=1;entryX=1;entryY=0.5;entryDx=0;entryDy=0;endArrow=block;endFill=0;exitX=-0.004;exitY=0.069;exitDx=0;exitDy=0;exitPerimeter=0;" parent="WIyWlLk6GJQsqaUBKTNV-1" source="YJZqjUyzHQ_o85CFt1zB-91" target="YJZqjUyzHQ_o85CFt1zB-73" edge="1">
          <mxGeometry relative="1" as="geometry" />
        </mxCell>
        <mxCell id="YJZqjUyzHQ_o85CFt1zB-187" style="rounded=0;orthogonalLoop=1;jettySize=auto;html=1;entryX=0;entryY=0.5;entryDx=0;entryDy=0;endArrow=block;endFill=0;" parent="WIyWlLk6GJQsqaUBKTNV-1" source="YJZqjUyzHQ_o85CFt1zB-128" target="YJZqjUyzHQ_o85CFt1zB-47" edge="1">
          <mxGeometry relative="1" as="geometry" />
        </mxCell>
        <mxCell id="YJZqjUyzHQ_o85CFt1zB-189" style="rounded=0;orthogonalLoop=1;jettySize=auto;html=1;exitX=1;exitY=0.5;exitDx=0;exitDy=0;entryX=0;entryY=0.5;entryDx=0;entryDy=0;endArrow=block;endFill=0;" parent="WIyWlLk6GJQsqaUBKTNV-1" source="YJZqjUyzHQ_o85CFt1zB-12" target="YJZqjUyzHQ_o85CFt1zB-101" edge="1">
          <mxGeometry relative="1" as="geometry" />
        </mxCell>
        <mxCell id="YJZqjUyzHQ_o85CFt1zB-190" style="rounded=0;orthogonalLoop=1;jettySize=auto;html=1;exitX=1;exitY=0.5;exitDx=0;exitDy=0;entryX=0;entryY=0.5;entryDx=0;entryDy=0;endArrow=block;endFill=0;edgeStyle=orthogonalEdgeStyle;" parent="WIyWlLk6GJQsqaUBKTNV-1" source="YJZqjUyzHQ_o85CFt1zB-1" target="YJZqjUyzHQ_o85CFt1zB-109" edge="1">
          <mxGeometry relative="1" as="geometry">
            <Array as="points">
              <mxPoint x="500" y="19" />
              <mxPoint x="500" y="-47" />
            </Array>
          </mxGeometry>
        </mxCell>
        <mxCell id="YJZqjUyzHQ_o85CFt1zB-195" style="rounded=0;orthogonalLoop=1;jettySize=auto;html=1;exitX=0.5;exitY=0;exitDx=0;exitDy=0;endArrow=block;endFill=0;entryX=1;entryY=0.5;entryDx=0;entryDy=0;edgeStyle=orthogonalEdgeStyle;" parent="WIyWlLk6GJQsqaUBKTNV-1" source="YJZqjUyzHQ_o85CFt1zB-58" target="YJZqjUyzHQ_o85CFt1zB-110" edge="1">
          <mxGeometry relative="1" as="geometry">
            <mxPoint x="1320" y="-30" as="targetPoint" />
          </mxGeometry>
        </mxCell>
        <mxCell id="YJZqjUyzHQ_o85CFt1zB-196" style="rounded=0;orthogonalLoop=1;jettySize=auto;html=1;entryX=1;entryY=0.5;entryDx=0;entryDy=0;exitX=0.5;exitY=0;exitDx=0;exitDy=0;endArrow=block;endFill=0;edgeStyle=orthogonalEdgeStyle;" parent="WIyWlLk6GJQsqaUBKTNV-1" source="YJZqjUyzHQ_o85CFt1zB-71" target="YJZqjUyzHQ_o85CFt1zB-102" edge="1">
          <mxGeometry relative="1" as="geometry" />
        </mxCell>
        <mxCell id="YJZqjUyzHQ_o85CFt1zB-197" style="rounded=0;orthogonalLoop=1;jettySize=auto;html=1;entryX=0.171;entryY=1.18;entryDx=0;entryDy=0;entryPerimeter=0;edgeStyle=orthogonalEdgeStyle;endArrow=block;endFill=0;" parent="WIyWlLk6GJQsqaUBKTNV-1" source="YJZqjUyzHQ_o85CFt1zB-43" target="YJZqjUyzHQ_o85CFt1zB-105" edge="1">
          <mxGeometry relative="1" as="geometry">
            <Array as="points">
              <mxPoint x="304" y="200" />
              <mxPoint x="1050" y="200" />
            </Array>
          </mxGeometry>
        </mxCell>
        <mxCell id="YJZqjUyzHQ_o85CFt1zB-199" style="edgeStyle=orthogonalEdgeStyle;rounded=0;orthogonalLoop=1;jettySize=auto;html=1;entryX=0.45;entryY=1.04;entryDx=0;entryDy=0;entryPerimeter=0;exitX=0.005;exitY=0.103;exitDx=0;exitDy=0;exitPerimeter=0;endArrow=block;endFill=0;" parent="WIyWlLk6GJQsqaUBKTNV-1" source="YJZqjUyzHQ_o85CFt1zB-95" target="YJZqjUyzHQ_o85CFt1zB-54" edge="1">
          <mxGeometry relative="1" as="geometry" />
        </mxCell>
        <mxCell id="YJZqjUyzHQ_o85CFt1zB-200" style="rounded=0;orthogonalLoop=1;jettySize=auto;html=1;entryX=0.446;entryY=0.967;entryDx=0;entryDy=0;entryPerimeter=0;exitX=0.25;exitY=0;exitDx=0;exitDy=0;edgeStyle=orthogonalEdgeStyle;endArrow=block;endFill=0;" parent="WIyWlLk6GJQsqaUBKTNV-1" source="YJZqjUyzHQ_o85CFt1zB-94" target="YJZqjUyzHQ_o85CFt1zB-42" edge="1">
          <mxGeometry relative="1" as="geometry">
            <Array as="points">
              <mxPoint x="1023" y="929" />
              <mxPoint x="820" y="929" />
            </Array>
          </mxGeometry>
        </mxCell>
      </root>
    </mxGraphModel>
  </diagram>
</mxfile>
